REM DIRINDEX 1\4,1\2\5,1\2\6,1\3\7,1\3\8
REM DIRNAME cjc124,folder01,folder02,folder03,folder04,folder05,folder06,folder07
TITLE ""
FILE "049_Day25_Check2_Phrases.mp3" MP3
  TRACK 01 AUDIO
    TITLE "0:"
    INDEX 01 00:00:00
  TRACK 02 AUDIO
    TITLE "4:cjc124_1587"
    INDEX 01 00:00:31
  TRACK 03 AUDIO
    TITLE "0:"
    INDEX 01 00:01:46
  TRACK 04 AUDIO
    TITLE "5:cjc124_1588"
    INDEX 01 00:02:02
  TRACK 05 AUDIO
    TITLE "0:"
    INDEX 01 00:03:59
  TRACK 06 AUDIO
    TITLE "6:cjc124_1589"
    INDEX 01 00:04:05
  TRACK 07 AUDIO
    TITLE "0:"
    INDEX 01 00:05:38
  TRACK 08 AUDIO
    TITLE "5:cjc124_1590"
    INDEX 01 00:06:00
  TRACK 09 AUDIO
    TITLE "0:"
    INDEX 01 00:07:49
  TRACK 10 AUDIO
    TITLE "6:cjc124_1591"
    INDEX 01 00:07:68
  TRACK 11 AUDIO
    TITLE "0:"
    INDEX 01 00:09:28
  TRACK 12 AUDIO
    TITLE "5:cjc124_1592"
    INDEX 01 00:09:65
  TRACK 13 AUDIO
    TITLE "0:"
    INDEX 01 00:11:62
  TRACK 14 AUDIO
    TITLE "6:cjc124_1593"
    INDEX 01 00:12:05
  TRACK 15 AUDIO
    TITLE "0:"
    INDEX 01 00:13:61
  TRACK 16 AUDIO
    TITLE "5:cjc124_1594"
    INDEX 01 00:14:25
  TRACK 17 AUDIO
    TITLE "0:"
    INDEX 01 00:16:67
  TRACK 18 AUDIO
    TITLE "6:cjc124_1595"
    INDEX 01 00:17:06
  TRACK 19 AUDIO
    TITLE "0:"
    INDEX 01 00:19:69
  TRACK 20 AUDIO
    TITLE "5:cjc124_1596"
    INDEX 01 00:20:34
  TRACK 21 AUDIO
    TITLE "0:"
    INDEX 01 00:22:34
  TRACK 22 AUDIO
    TITLE "6:cjc124_1597"
    INDEX 01 00:22:56
  TRACK 23 AUDIO
    TITLE "0:"
    INDEX 01 00:24:57
  TRACK 24 AUDIO
    TITLE "5:cjc124_1598"
    INDEX 01 00:25:21
  TRACK 25 AUDIO
    TITLE "0:"
    INDEX 01 00:27:18
  TRACK 26 AUDIO
    TITLE "6:cjc124_1599"
    INDEX 01 00:27:36
  TRACK 27 AUDIO
    TITLE "0:"
    INDEX 01 00:28:74
  TRACK 28 AUDIO
    TITLE "5:cjc124_1600"
    INDEX 01 00:29:36
  TRACK 29 AUDIO
    TITLE "0:"
    INDEX 01 00:31:24
  TRACK 30 AUDIO
    TITLE "6:cjc124_1601"
    INDEX 01 00:31:41
  TRACK 31 AUDIO
    TITLE "0:"
    INDEX 01 00:33:46
  TRACK 32 AUDIO
    TITLE "5:cjc124_1602"
    INDEX 01 00:34:08
  TRACK 33 AUDIO
    TITLE "0:"
    INDEX 01 00:36:15
  TRACK 34 AUDIO
    TITLE "6:cjc124_1603"
    INDEX 01 00:36:42
  TRACK 35 AUDIO
    TITLE "0:"
    INDEX 01 00:38:45
  TRACK 36 AUDIO
    TITLE "5:cjc124_1604"
    INDEX 01 00:39:05
  TRACK 37 AUDIO
    TITLE "0:"
    INDEX 01 00:40:40
  TRACK 38 AUDIO
    TITLE "6:cjc124_1605"
    INDEX 01 00:40:70
  TRACK 39 AUDIO
    TITLE "0:"
    INDEX 01 00:42:18
  TRACK 40 AUDIO
    TITLE "5:cjc124_1606"
    INDEX 01 00:42:63
  TRACK 41 AUDIO
    TITLE "0:"
    INDEX 01 00:44:48
  TRACK 42 AUDIO
    TITLE "6:cjc124_1607"
    INDEX 01 00:44:69
  TRACK 43 AUDIO
    TITLE "0:"
    INDEX 01 00:46:29
  TRACK 44 AUDIO
    TITLE "5:cjc124_1608"
    INDEX 01 00:46:68
  TRACK 45 AUDIO
    TITLE "0:"
    INDEX 01 00:48:65
  TRACK 46 AUDIO
    TITLE "6:cjc124_1609"
    INDEX 01 00:49:16
  TRACK 47 AUDIO
    TITLE "0:"
    INDEX 01 00:50:58
  TRACK 48 AUDIO
    TITLE "5:cjc124_1610"
    INDEX 01 00:51:20
  TRACK 49 AUDIO
    TITLE "0:"
    INDEX 01 00:53:11
  TRACK 50 AUDIO
    TITLE "6:cjc124_1611"
    INDEX 01 00:53:29
  TRACK 51 AUDIO
    TITLE "0:"
    INDEX 01 00:54:56
  TRACK 52 AUDIO
    TITLE "5:cjc124_1612"
    INDEX 01 00:55:20
  TRACK 53 AUDIO
    TITLE "0:"
    INDEX 01 00:56:72
  TRACK 54 AUDIO
    TITLE "6:cjc124_1613"
    INDEX 01 00:57:21
  TRACK 55 AUDIO
    TITLE "0:"
    INDEX 01 00:58:52
  TRACK 56 AUDIO
    TITLE "5:cjc124_1614"
    INDEX 01 00:59:14
  TRACK 57 AUDIO
    TITLE "0:"
    INDEX 01 01:00:53
  TRACK 58 AUDIO
    TITLE "6:cjc124_1615"
    INDEX 01 01:00:72
  TRACK 59 AUDIO
    TITLE "0:"
    INDEX 01 01:02:36
  TRACK 60 AUDIO
    TITLE "5:cjc124_1616"
    INDEX 01 01:02:73
  TRACK 61 AUDIO
    TITLE "0:"
    INDEX 01 01:04:58
  TRACK 62 AUDIO
    TITLE "6:cjc124_1617"
    INDEX 01 01:05:03
  TRACK 63 AUDIO
    TITLE "0:"
    INDEX 01 01:06:34
  TRACK 64 AUDIO
    TITLE "5:cjc124_1618"
    INDEX 01 01:07:00
  TRACK 65 AUDIO
    TITLE "0:"
    INDEX 01 01:08:44
  TRACK 66 AUDIO
    TITLE "6:cjc124_1619"
    INDEX 01 01:08:64
  TRACK 67 AUDIO
    TITLE "0:"
    INDEX 01 01:10:06
